<svg xmlns="http://www.w3.org/2000/svg" width="490.788" height="522" viewBox="0 0 129.854 138.113"><path d="M0 137.451v-.661h42.863V0h57.414v23.812h.87c1.401 0 3.875.73 6.003 1.769 2.728 1.332 5.637 4.241 6.97 6.969 1.298 2.658 1.768 4.66 1.768 7.534 0 2.875-.47 4.877-1.769 7.535-1.332 2.728-4.241 5.637-6.969 6.97-2.128 1.039-4.602 1.767-6.002 1.767h-.87V68.541l.727-.387c.4-.213 6.916-3.954 14.48-8.314 13.288-7.659 13.765-7.909 14.128-7.391.32.458.321.567.006.752-.203.119-6.859 3.953-14.79 8.521l-14.42 8.306-.068 12.868-.069 12.868 9.436 16.34c5.19 8.987 9.487 16.534 9.549 16.772.121.464-.682.929-1.002.58-.105-.114-4.33-7.385-9.39-16.159-5.06-8.774-9.284-15.858-9.385-15.743-.101.115-4.263 7.294-9.249 15.952-4.985 8.659-9.15 15.836-9.254 15.95-.32.349-1.123-.117-1.002-.58.062-.238 4.36-7.785 9.549-16.772l9.436-16.34-.07-12.868-.068-12.868-14.42-8.306c-7.93-4.568-14.586-8.402-14.789-8.521-.316-.185-.315-.294.006-.752.363-.518.84-.268 14.128 7.391 7.564 4.36 14.08 8.101 14.48 8.314l.728.387V56.356h-.87c-1.402 0-3.875-.728-6.003-1.768-3.899-1.904-7.207-6.08-8.337-10.524-.513-2.02-.514-5.934-.002-7.959 1.442-5.696 6.198-10.452 11.894-11.893.867-.22 1.968-.4 2.447-.4h.87V1.323H44.185V136.79h44.98v1.322H0zm103.44-82.808c5.16-1.373 9.36-5.573 10.734-10.734.495-1.858.493-5.797-.003-7.66-1.362-5.118-5.607-9.36-10.731-10.723-1.858-.495-5.797-.493-7.66.003-5.082 1.352-9.368 5.639-10.72 10.721-.496 1.863-.498 5.802-.004 7.66 1.347 5.06 5.58 9.339 10.608 10.718 1.76.483 5.986.492 7.775.015z"/></svg>