<svg xmlns="http://www.w3.org/2000/svg" width="438" height="522" viewBox="0 0 115.888 138.112"><path d="M0 137.451v-.661h42.863V0h57.414V23.813h.87c1.401 0 3.875.728 6.003 1.768 2.728 1.332 5.637 4.241 6.97 6.969 1.298 2.658 1.768 4.66 1.768 7.534 0 1.322-.18 3.112-.401 3.98-1.467 5.771-6.12 10.424-11.892 11.891-2.023.515-5.936.515-7.959 0-5.771-1.467-10.424-6.12-11.891-11.891-.514-2.02-.515-5.934-.002-7.959 1.441-5.696 6.197-10.452 11.893-11.893.867-.22 1.969-.4 2.447-.4h.87V1.324H44.186V136.79h44.98v1.322H0zm103.44-82.808c5.16-1.373 9.36-5.573 10.734-10.734.495-1.858.493-5.797-.003-7.66-1.362-5.118-5.607-9.36-10.731-10.723-1.858-.495-5.797-.493-7.66.003-5.082 1.352-9.368 5.639-10.72 10.721-.496 1.863-.498 5.802-.004 7.66 1.347 5.06 5.58 9.339 10.608 10.718 1.76.483 5.986.492 7.775.015z"/></svg>