<?xml version="1.0" encoding="UTF-8" standalone="no"?>
<svg
   xmlns:dc="http://purl.org/dc/elements/1.1/"
   xmlns:cc="http://creativecommons.org/ns#"
   xmlns:rdf="http://www.w3.org/1999/02/22-rdf-syntax-ns#"
   xmlns:svg="http://www.w3.org/2000/svg"
   xmlns="http://www.w3.org/2000/svg"
   xmlns:sodipodi="http://sodipodi.sourceforge.net/DTD/sodipodi-0.dtd"
   xmlns:inkscape="http://www.inkscape.org/namespaces/inkscape"
   width="115.88751mm"
   height="138.11249mm"
   viewBox="0 0 115.88752 138.11248"
   version="1.1"
   id="svg8"
   inkscape:version="1.0.1 (3bc2e813f5, 2020-09-07)"
   sodipodi:docname="1.svg">
  <defs
     id="defs2" />
  <sodipodi:namedview
     id="base"
     pagecolor="#ffffff"
     bordercolor="#666666"
     borderopacity="1.0"
     inkscape:pageopacity="0.0"
     inkscape:pageshadow="2"
     inkscape:zoom="0.7"
     inkscape:cx="427.70173"
     inkscape:cy="236.64986"
     inkscape:document-units="mm"
     inkscape:current-layer="layer1"
     inkscape:document-rotation="0"
     showgrid="false"
     fit-margin-top="0"
     fit-margin-left="0"
     fit-margin-right="0"
     fit-margin-bottom="0"
     inkscape:window-width="1920"
     inkscape:window-height="1017"
     inkscape:window-x="-8"
     inkscape:window-y="-8"
     inkscape:window-maximized="1" />
  <metadata
     id="metadata5">
    <rdf:RDF>
      <cc:Work
         rdf:about="">
        <dc:format>image/svg+xml</dc:format>
        <dc:type
           rdf:resource="http://purl.org/dc/dcmitype/StillImage" />
        <dc:title></dc:title>
      </cc:Work>
    </rdf:RDF>
  </metadata>
  <g
     inkscape:label="Layer 1"
     inkscape:groupmode="layer"
     id="layer1"
     transform="translate(-42.862491,-80.584525)">
    <path
       style="fill:#000000;stroke-width:0.264583"
       d="m 42.862501,218.03557 v -0.66146 h 21.43125 21.43125 V 148.97932 80.584525 h 28.707299 28.70729 v 11.90625 11.906255 h 0.87045 c 1.40092,0 3.87459,0.72857 6.00285,1.76801 2.72764,1.33219 5.63691,4.24146 6.9691,6.9691 1.29827,2.6582 1.76801,4.6601 1.76801,7.53476 0,1.3213 -0.18038,3.11199 -0.40085,3.97931 -1.46704,5.7713 -6.12041,10.42467 -11.89171,11.89171 -2.0228,0.51419 -5.93582,0.51419 -7.95862,0 -5.7713,-1.46704 -10.42467,-6.12041 -11.89171,-11.89171 -0.51353,-2.02022 -0.51437,-5.93324 -0.002,-7.95862 1.44174,-5.6958 6.19759,-10.45166 11.8934,-11.8934 0.86732,-0.21954 1.96865,-0.39916 2.4474,-0.39916 h 0.87035 V 93.152233 81.907442 H 114.43229 87.047911 v 67.733328 67.73334 h 22.489579 22.48958 v 0.66146 0.66145 H 87.444791 42.862491 Z M 146.30259,135.22751 c 5.16083,-1.37342 9.36073,-5.57331 10.73415,-10.73415 0.49429,-1.85738 0.49293,-5.79661 -0.003,-7.65892 -1.36205,-5.11842 -5.60692,-9.36038 -10.73151,-10.72415 -1.85738,-0.49429 -5.79661,-0.49293 -7.65892,0.003 -5.08254,1.3525 -9.36902,5.63898 -10.72151,10.72151 -0.49558,1.86231 -0.49693,5.80154 -0.003,7.65892 1.34698,5.06152 5.58061,9.33957 10.60779,10.71908 1.76055,0.48311 5.98574,0.4913 7.77528,0.0151 z"
       id="path40" />
  </g>
</svg>
