<?xml version="1.0" encoding="UTF-8" standalone="no"?>
<svg
   xmlns:dc="http://purl.org/dc/elements/1.1/"
   xmlns:cc="http://creativecommons.org/ns#"
   xmlns:rdf="http://www.w3.org/1999/02/22-rdf-syntax-ns#"
   xmlns:svg="http://www.w3.org/2000/svg"
   xmlns="http://www.w3.org/2000/svg"
   xmlns:sodipodi="http://sodipodi.sourceforge.net/DTD/sodipodi-0.dtd"
   xmlns:inkscape="http://www.inkscape.org/namespaces/inkscape"
   width="115.8875mm"
   height="138.1125mm"
   viewBox="0 0 115.8875 138.1125"
   version="1.1"
   id="svg8"
   inkscape:version="1.0.1 (3bc2e813f5, 2020-09-07)"
   sodipodi:docname="2.svg">
  <defs
     id="defs2" />
  <sodipodi:namedview
     id="base"
     pagecolor="#ffffff"
     bordercolor="#666666"
     borderopacity="1.0"
     inkscape:pageopacity="0.0"
     inkscape:pageshadow="2"
     inkscape:zoom="0.7"
     inkscape:cx="428.27316"
     inkscape:cy="233.79272"
     inkscape:document-units="mm"
     inkscape:current-layer="layer1"
     inkscape:document-rotation="0"
     showgrid="false"
     fit-margin-top="0"
     fit-margin-left="0"
     fit-margin-right="0"
     fit-margin-bottom="0"
     inkscape:window-width="1920"
     inkscape:window-height="1017"
     inkscape:window-x="-8"
     inkscape:window-y="-8"
     inkscape:window-maximized="1" />
  <metadata
     id="metadata5">
    <rdf:RDF>
      <cc:Work
         rdf:about="">
        <dc:format>image/svg+xml</dc:format>
        <dc:type
           rdf:resource="http://purl.org/dc/dcmitype/StillImage" />
        <dc:title></dc:title>
      </cc:Work>
    </rdf:RDF>
  </metadata>
  <g
     inkscape:label="Layer 1"
     inkscape:groupmode="layer"
     id="layer1"
     transform="translate(-42.711301,-81.340476)">
    <path
       style="fill:#000000;stroke-width:0.264583"
       d="m 42.711301,218.79152 v -0.66145 h 21.43125 21.43125 v -68.3948 -68.394794 h 28.707299 28.70729 v 11.906248 11.906256 h 0.87045 c 1.40092,0 3.87459,0.72857 6.00285,1.76802 2.72764,1.33218 5.63691,4.24146 6.9691,6.9691 1.29827,2.6582 1.76801,4.6601 1.76801,7.53476 0,2.87466 -0.46974,4.87656 -1.76801,7.53476 -1.33219,2.72764 -4.24146,5.63691 -6.9691,6.9691 -2.12826,1.03944 -4.60193,1.76801 -6.00285,1.76801 h -0.87045 v 19.84375 19.84375 h -0.66146 -0.66146 v -19.84375 -19.84375 h -0.87045 c -0.47875,0 -1.58008,-0.18038 -2.4474,-0.40085 -5.7713,-1.46704 -10.42467,-6.12041 -11.89171,-11.89172 -0.51353,-2.02022 -0.51437,-5.93323 -0.002,-7.95861 1.44174,-5.69581 6.19759,-10.45166 11.8934,-11.8934 0.86732,-0.21955 1.96865,-0.39917 2.4474,-0.39917 h 0.87035 V 93.908184 82.663393 H 114.2811 86.896718 v 67.733337 67.73334 h 22.489582 22.48959 v 0.66145 0.66146 H 87.293593 42.711301 Z M 146.15139,135.98346 c 5.16083,-1.37341 9.36073,-5.57331 10.73415,-10.73414 0.49429,-1.85738 0.49293,-5.79661 -0.003,-7.65892 -1.36205,-5.11842 -5.60692,-9.36038 -10.73151,-10.72415 -1.85738,-0.49429 -5.79661,-0.49294 -7.65892,0.003 -5.08254,1.3525 -9.36902,5.63898 -10.72151,10.72152 -0.49558,1.8623 -0.49693,5.80153 -0.003,7.65892 1.34698,5.06151 5.58061,9.33956 10.60779,10.71907 1.76055,0.48312 5.98574,0.49131 7.77528,0.0151 z"
       id="path56" />
  </g>
</svg>
