<svg xmlns="http://www.w3.org/2000/svg" width="490.788" height="522" viewBox="0 0 129.854 138.113"><path d="M0 137.451v-.661h42.862V0h57.415v23.812h.87c1.401 0 3.875.73 6.003 1.769 2.728 1.332 5.637 4.241 6.97 6.969 1.298 2.658 1.767 4.66 1.767 7.534 0 2.875-.47 4.877-1.768 7.535-1.332 2.728-4.241 5.637-6.969 6.97-2.128 1.039-4.602 1.767-6.002 1.767h-.87V68.541l.727-.387c.4-.213 6.916-3.954 14.48-8.314 13.288-7.659 13.765-7.909 14.128-7.391.32.458.321.567.006.752-.203.119-6.859 3.953-14.79 8.521l-14.42 8.306-.068 13.008-.068 13.008H98.96l-.069-13.008-.069-13.008-14.42-8.306c-7.93-4.568-14.585-8.402-14.789-8.521-.315-.185-.315-.294.006-.752.363-.518.84-.268 14.128 7.391 7.564 4.36 14.08 8.101 14.48 8.314l.728.387V56.356h-.87c-.48 0-1.58-.18-2.448-.4-5.771-1.468-10.424-6.121-11.892-11.892-.513-2.02-.514-5.934-.002-7.959 1.442-5.696 6.198-10.452 11.894-11.893.867-.22 1.969-.4 2.447-.4h.87V1.323H44.187V136.79h44.98v1.322H0zm103.44-82.808c5.16-1.373 9.36-5.573 10.734-10.734.495-1.858.493-5.797-.003-7.66-1.362-5.118-5.607-9.36-10.731-10.723-1.858-.495-5.797-.493-7.66.003-5.082 1.352-9.368 5.639-10.72 10.721-.496 1.863-.498 5.802-.004 7.66 1.347 5.06 5.58 9.339 10.608 10.718 1.76.483 5.986.492 7.775.015z"/></svg>