<?xml version="1.0" encoding="UTF-8" standalone="no"?>
<svg
   xmlns:dc="http://purl.org/dc/elements/1.1/"
   xmlns:cc="http://creativecommons.org/ns#"
   xmlns:rdf="http://www.w3.org/1999/02/22-rdf-syntax-ns#"
   xmlns:svg="http://www.w3.org/2000/svg"
   xmlns="http://www.w3.org/2000/svg"
   xmlns:sodipodi="http://sodipodi.sourceforge.net/DTD/sodipodi-0.dtd"
   xmlns:inkscape="http://www.inkscape.org/namespaces/inkscape"
   width="115.8875mm"
   height="138.1125mm"
   viewBox="0 0 115.88751 138.1125"
   version="1.1"
   id="svg8"
   inkscape:version="1.0.1 (3bc2e813f5, 2020-09-07)"
   sodipodi:docname="3.svg">
  <defs
     id="defs2" />
  <sodipodi:namedview
     id="base"
     pagecolor="#ffffff"
     bordercolor="#666666"
     borderopacity="1.0"
     inkscape:pageopacity="0.0"
     inkscape:pageshadow="2"
     inkscape:zoom="0.7"
     inkscape:cx="348.8446"
     inkscape:cy="202.22129"
     inkscape:document-units="mm"
     inkscape:current-layer="layer1"
     inkscape:document-rotation="0"
     showgrid="false"
     fit-margin-top="0"
     fit-margin-left="0"
     fit-margin-right="0"
     fit-margin-bottom="0"
     inkscape:window-width="1920"
     inkscape:window-height="1017"
     inkscape:window-x="-8"
     inkscape:window-y="-8"
     inkscape:window-maximized="1" />
  <metadata
     id="metadata5">
    <rdf:RDF>
      <cc:Work
         rdf:about="">
        <dc:format>image/svg+xml</dc:format>
        <dc:type
           rdf:resource="http://purl.org/dc/dcmitype/StillImage" />
        <dc:title></dc:title>
      </cc:Work>
    </rdf:RDF>
  </metadata>
  <g
     inkscape:label="Layer 1"
     inkscape:groupmode="layer"
     id="layer1"
     transform="translate(-63.726775,-89.69375)">
    <path
       style="fill:#000000;stroke-width:0.264583"
       d="m 63.726775,227.14479 v -0.66146 h 21.43125 21.431255 V 158.08854 89.69375 h 28.70729 28.70729 V 101.6 113.50625 h 0.87045 c 1.40092,0 3.87459,0.72857 6.00285,1.76801 2.72764,1.33219 5.63691,4.24146 6.9691,6.96911 1.29827,2.6582 1.76802,4.6601 1.76802,7.53476 0,2.87465 -0.46975,4.87655 -1.76802,7.53475 -1.33219,2.72765 -4.24146,5.63692 -6.9691,6.96911 -2.12826,1.03944 -4.60193,1.76801 -6.00285,1.76801 h -0.87045 v 19.84375 19.84375 h -0.65897 -0.65896 l -0.0686,-13.00805 -0.0686,-13.00806 -14.41979,-8.30542 c -7.93089,-4.56799 -14.58607,-8.40269 -14.78929,-8.52156 -0.31573,-0.18468 -0.31491,-0.29407 0.006,-0.75172 0.36246,-0.51749 0.83971,-0.2678 14.12783,7.39149 7.56398,4.35989 14.08012,8.10104 14.4803,8.31366 l 0.7276,0.38658 V 152.14221 146.05 h -0.87041 c -0.47875,0 -1.58008,-0.18038 -2.4474,-0.40085 -5.7713,-1.46704 -10.42467,-6.12041 -11.89172,-11.89172 -0.51352,-2.02022 -0.51436,-5.93323 -0.002,-7.95861 1.44175,-5.69581 6.1976,-10.45166 11.89341,-11.89341 0.86732,-0.21954 1.96864,-0.39916 2.44739,-0.39916 h 0.87036 V 102.26146 91.016667 H 135.29657 107.91219 V 158.75 226.48333 h 22.48959 22.48958 v 0.66146 0.66146 H 108.30907 63.726775 Z M 167.16686,144.33673 c 5.16084,-1.37341 9.36073,-5.57331 10.73415,-10.73414 0.49429,-1.85739 0.49293,-5.79662 -0.003,-7.65892 -1.36205,-5.11843 -5.60691,-9.36038 -10.73151,-10.72415 -1.85738,-0.49429 -5.79661,-0.49294 -7.65892,0.003 -5.08253,1.3525 -9.36902,5.63898 -10.72151,10.72151 -0.49557,1.86231 -0.49693,5.80154 -0.003,7.65893 1.34698,5.06151 5.58061,9.33956 10.60779,10.71907 1.76055,0.48312 5.98574,0.49131 7.77528,0.0151 z"
       id="path72" />
  </g>
</svg>
