<?xml version="1.0" encoding="UTF-8" standalone="no"?>
<svg
   xmlns:dc="http://purl.org/dc/elements/1.1/"
   xmlns:cc="http://creativecommons.org/ns#"
   xmlns:rdf="http://www.w3.org/1999/02/22-rdf-syntax-ns#"
   xmlns:svg="http://www.w3.org/2000/svg"
   xmlns="http://www.w3.org/2000/svg"
   xmlns:sodipodi="http://sodipodi.sourceforge.net/DTD/sodipodi-0.dtd"
   xmlns:inkscape="http://www.inkscape.org/namespaces/inkscape"
   width="129.85429mm"
   height="138.1125mm"
   viewBox="0 0 129.8543 138.1125"
   version="1.1"
   id="svg8"
   inkscape:version="1.0.1 (3bc2e813f5, 2020-09-07)"
   sodipodi:docname="4.svg">
  <defs
     id="defs2" />
  <sodipodi:namedview
     id="base"
     pagecolor="#ffffff"
     bordercolor="#666666"
     borderopacity="1.0"
     inkscape:pageopacity="0.0"
     inkscape:pageshadow="2"
     inkscape:zoom="0.7"
     inkscape:cx="364.98746"
     inkscape:cy="208.50698"
     inkscape:document-units="mm"
     inkscape:current-layer="layer1"
     inkscape:document-rotation="0"
     showgrid="false"
     fit-margin-top="0"
     fit-margin-left="0"
     fit-margin-right="0"
     fit-margin-bottom="0"
     inkscape:window-width="1920"
     inkscape:window-height="1017"
     inkscape:window-x="-8"
     inkscape:window-y="-8"
     inkscape:window-maximized="1" />
  <metadata
     id="metadata5">
    <rdf:RDF>
      <cc:Work
         rdf:about="">
        <dc:format>image/svg+xml</dc:format>
        <dc:type
           rdf:resource="http://purl.org/dc/dcmitype/StillImage" />
        <dc:title></dc:title>
      </cc:Work>
    </rdf:RDF>
  </metadata>
  <g
     inkscape:label="Layer 1"
     inkscape:groupmode="layer"
     id="layer1"
     transform="translate(-59.455643,-88.03066)">
    <path
       style="fill:#000000;stroke-width:0.264583"
       d="m 59.455643,225.4817 v -0.66146 h 21.43125 21.431247 V 156.42545 88.03066 h 28.7073 28.70729 v 11.90625 11.90625 h 0.87045 c 1.40092,0 3.87459,0.72857 6.00285,1.76801 2.72764,1.33219 5.63691,4.24146 6.9691,6.9691 1.29827,2.6582 1.76801,4.6601 1.76801,7.53476 0,2.87466 -0.46974,4.87656 -1.76801,7.53476 -1.33219,2.72764 -4.24146,5.63691 -6.9691,6.9691 -2.12826,1.03945 -4.60193,1.76802 -6.00285,1.76802 h -0.87045 v 6.09221 6.09221 l 0.7276,-0.38659 c 0.40018,-0.21262 6.91632,-3.95376 14.4803,-8.31365 13.28812,-7.65929 13.76537,-7.90898 14.12783,-7.39149 0.32055,0.45765 0.32137,0.56704 0.006,0.75172 -0.20322,0.11887 -6.8584,3.95357 -14.78929,8.52156 l -14.41979,8.30542 -0.0686,13.00806 -0.0686,13.00805 h -0.65647 -0.65647 l -0.0686,-13.00805 -0.0686,-13.00806 -14.41979,-8.30542 c -7.93089,-4.56799 -14.58607,-8.40269 -14.78929,-8.52156 -0.31573,-0.18468 -0.31491,-0.29407 0.006,-0.75172 0.36246,-0.51749 0.83971,-0.2678 14.12783,7.39149 7.56398,4.35989 14.08012,8.10103 14.4803,8.31365 l 0.7276,0.38659 v -6.09221 -6.09221 h -0.87045 c -0.47875,0 -1.58008,-0.18039 -2.44739,-0.40085 -5.77131,-1.46705 -10.42468,-6.12042 -11.89172,-11.89172 -0.51353,-2.02022 -0.51436,-5.93323 -0.002,-7.95861 1.44174,-5.69581 6.1976,-10.45166 11.8934,-11.89341 0.86732,-0.21954 1.96865,-0.39916 2.4474,-0.39916 h 0.87035 v -11.24479 -11.2448 h -27.38432 -27.38438 v 67.73334 67.73333 h 22.48958 22.48959 v 0.66146 0.66146 H 104.03794 59.455643 Z M 162.89573,142.67364 c 5.16083,-1.37342 9.36073,-5.57331 10.73415,-10.73415 0.49429,-1.85738 0.49293,-5.79661 -0.003,-7.65892 -1.36205,-5.11842 -5.60692,-9.36037 -10.73151,-10.72415 -1.85738,-0.49429 -5.79661,-0.49293 -7.65892,0.003 -5.08254,1.35249 -9.36902,5.63898 -10.72151,10.72151 -0.49558,1.86231 -0.49693,5.80154 -0.003,7.65892 1.34698,5.06152 5.58061,9.33957 10.60779,10.71908 1.76055,0.48311 5.98574,0.4913 7.77528,0.0151 z"
       id="path88" />
  </g>
</svg>
