<?xml version="1.0" encoding="UTF-8" standalone="no"?>
<svg
   xmlns:dc="http://purl.org/dc/elements/1.1/"
   xmlns:cc="http://creativecommons.org/ns#"
   xmlns:rdf="http://www.w3.org/1999/02/22-rdf-syntax-ns#"
   xmlns:svg="http://www.w3.org/2000/svg"
   xmlns="http://www.w3.org/2000/svg"
   xmlns:sodipodi="http://sodipodi.sourceforge.net/DTD/sodipodi-0.dtd"
   xmlns:inkscape="http://www.inkscape.org/namespaces/inkscape"
   width="129.85437mm"
   height="138.1125mm"
   viewBox="0 0 129.85438 138.1125"
   version="1.1"
   id="svg8"
   inkscape:version="1.0.1 (3bc2e813f5, 2020-09-07)"
   sodipodi:docname="5.svg">
  <defs
     id="defs2" />
  <sodipodi:namedview
     id="base"
     pagecolor="#ffffff"
     bordercolor="#666666"
     borderopacity="1.0"
     inkscape:pageopacity="0.0"
     inkscape:pageshadow="2"
     inkscape:zoom="0.7"
     inkscape:cx="203.98776"
     inkscape:cy="150.507"
     inkscape:document-units="mm"
     inkscape:current-layer="layer1"
     inkscape:document-rotation="0"
     showgrid="false"
     fit-margin-top="0"
     fit-margin-left="0"
     fit-margin-right="0"
     fit-margin-bottom="0"
     inkscape:window-width="1920"
     inkscape:window-height="1017"
     inkscape:window-x="-8"
     inkscape:window-y="-8"
     inkscape:window-maximized="1" />
  <metadata
     id="metadata5">
    <rdf:RDF>
      <cc:Work
         rdf:about="">
        <dc:format>image/svg+xml</dc:format>
        <dc:type
           rdf:resource="http://purl.org/dc/dcmitype/StillImage" />
        <dc:title></dc:title>
      </cc:Work>
    </rdf:RDF>
  </metadata>
  <g
     inkscape:label="Layer 1"
     inkscape:groupmode="layer"
     id="layer1"
     transform="translate(-102.05348,-103.37649)">
    <path
       style="fill:#000000;stroke-width:0.264583"
       d="m 102.05356,240.82753 v -0.66146 h 21.43125 21.43125 v -68.39479 -68.39479 h 28.70729 28.70729 v 11.90625 11.90625 h 0.87045 c 1.40093,0 3.8746,0.72857 6.00285,1.76801 2.72765,1.33219 5.63692,4.24146 6.9691,6.96911 1.29828,2.6582 1.76802,4.6601 1.76802,7.53475 0,2.87466 -0.46974,4.87656 -1.76802,7.53476 -1.33218,2.72765 -4.24145,5.63692 -6.9691,6.96911 -2.12825,1.03944 -4.60192,1.76801 -6.00285,1.76801 h -0.87045 v 6.09221 6.09221 l 0.72761,-0.38658 c 0.40018,-0.21262 6.91631,-3.95377 14.48029,-8.31366 13.28813,-7.65929 13.76538,-7.90898 14.12784,-7.39149 0.32055,0.45765 0.32137,0.56704 0.006,0.75172 -0.20322,0.11887 -6.85841,3.95354 -14.78929,8.52148 l -14.4198,8.30535 -0.13229,13.20657 -0.13229,13.20656 -9.48959,16.40417 c -5.21928,9.02229 -9.57491,16.49737 -9.6792,16.61128 -0.31924,0.34873 -1.1226,-0.11669 -1.00141,-0.58015 0.0622,-0.23779 4.35916,-7.78519 9.54883,-16.77199 l 9.43577,-16.33964 -0.0687,-12.86832 -0.0687,-12.86833 -14.41979,-8.30542 c -7.93089,-4.56799 -14.58607,-8.40269 -14.78929,-8.52156 -0.31573,-0.18468 -0.31491,-0.29407 0.006,-0.75172 0.36246,-0.51749 0.83971,-0.2678 14.12783,7.39149 7.56398,4.35989 14.08012,8.10104 14.4803,8.31366 l 0.7276,0.38658 v -6.09221 -6.09221 h -0.87045 c -0.47875,0 -1.58008,-0.18038 -2.4474,-0.40085 -5.7713,-1.46704 -10.42467,-6.12041 -11.89171,-11.89172 -0.51353,-2.02022 -0.51436,-5.93323 -0.002,-7.95861 1.44174,-5.69581 6.19759,-10.45166 11.8934,-11.89341 0.86732,-0.21954 1.96865,-0.39916 2.4474,-0.39916 h 0.87035 V 115.9442 104.69941 H 173.62327 146.2389 v 67.73333 67.73333 h 22.48958 22.48958 v 0.66146 0.66146 h -44.58229 -44.58229 z m 103.44009,-82.80806 c 5.16083,-1.37341 9.36073,-5.57331 10.73414,-10.73414 0.49429,-1.85739 0.49294,-5.79662 -0.003,-7.65892 -1.36204,-5.11843 -5.60691,-9.36038 -10.73151,-10.72415 -1.85738,-0.49429 -5.79661,-0.49294 -7.65892,0.003 -5.08253,1.3525 -9.36901,5.63898 -10.72151,10.72151 -0.49557,1.86231 -0.49693,5.80154 -0.003,7.65893 1.34698,5.06151 5.58062,9.33956 10.6078,10.71907 1.76054,0.48312 5.98574,0.49131 7.77527,0.0151 z"
       id="path104" />
  </g>
</svg>
